<svg id="Layer_1" data-name="Layer 1" xmlns="http://www.w3.org/2000/svg" viewBox="0 0 192 192" fill="#000" style="background-color: rgb(255, 255, 255); color: rgb(255, 255, 255);"><path d="M119.74,35.56s0,12.83-7.9,19.86S91.22,61,91.22,61s0-12.83,7.89-19.86S119.74,35.56,119.74,35.56Z" style="fill:none;stroke:#000;stroke-linecap:round;stroke-linejoin:round;stroke-width:2.80px" fill="#000"></path><path d="M62.47,35.81s.13,12.83,8.07,19.79S91.21,61,91.21,61s-.13-12.83-8.06-19.79S62.47,35.81,62.47,35.81Z" style="fill:none;stroke:#000;stroke-linecap:round;stroke-linejoin:round;stroke-width:2.80px" fill="#000"></path><line x1="69.32" y1="84" x2="69.32" y2="101.08" style="fill:none;stroke:#000;stroke-linecap:round;stroke-linejoin:round;stroke-width:2.80px" fill="#000"></line><polygon points="80.69 127.08 57.94 127.08 57.94 109.47 69.32 101.08 80.69 109.47 80.69 127.08" style="fill:none;stroke:#000;stroke-linecap:round;stroke-linejoin:round;stroke-width:2.80px" fill="#000"></polygon><path d="M135.72,84a10,10,0,0,1,10,10v7.47A54.57,54.57,0,0,1,91.15,156h0a54.57,54.57,0,0,1-54.57-54.57V94a10,10,0,0,1,10-10Z" style="fill:none;stroke:#000;stroke-linecap:round;stroke-linejoin:round;stroke-width:2.80px" fill="#000"></path><path d="M145.72,96.29h5.65a10,10,0,0,1,10,10v1.93c0,17.86-12.24,29.07-27.8,30.12l-2.24.06" style="fill:none;stroke:#000;stroke-linecap:round;stroke-linejoin:round;stroke-width:2.80px" fill="#000"></path><line x1="12.09" y1="156.04" x2="178.61" y2="156.04" style="fill:none;stroke:#000;stroke-linecap:round;stroke-linejoin:round;stroke-width:2.80px" fill="#000"></line></svg>